<svg width="84" height="84" viewBox="0 0 84 84" fill="none" xmlns="http://www.w3.org/2000/svg">
<path fill-rule="evenodd" clip-rule="evenodd" d="M0 42C0 18.804 18.804 0 42 0C65.196 0 84 18.804 84 42C84 65.196 65.196 84 42 84C18.804 84 0 65.196 0 42ZM41.9394 30.8373C45.352 30.8373 47.654 32.3136 48.9666 33.5471L54.0956 28.532C50.9455 25.5998 46.8463 23.8 41.9394 23.8C34.8314 23.8 28.6928 27.8849 25.7042 33.8302L31.5804 38.4004C33.0545 34.0122 37.1334 30.8373 41.9394 30.8373ZM59.3862 42.4044C59.3862 40.908 59.265 39.816 59.0025 38.6836H41.9394V45.4378H51.9551C51.7532 47.1162 50.6628 49.644 48.2396 51.3427L53.9744 55.7916C57.4073 52.6167 59.3862 47.9453 59.3862 42.4044ZM31.6006 45.5996C31.2169 44.4671 30.9948 43.2538 30.9948 42C30.9948 40.7462 31.2169 39.5329 31.5804 38.4004L25.7042 33.8302C24.4724 36.2973 23.7657 39.0678 23.7657 42C23.7657 44.9322 24.4724 47.7027 25.7042 50.1698L31.6006 45.5996ZM41.9394 60.2C46.8463 60.2 50.9657 58.5822 53.9744 55.7916L48.2396 51.3427C46.705 52.4144 44.6453 53.1627 41.9394 53.1627C37.1335 53.1627 33.0545 49.9878 31.6006 45.5996L25.7244 50.1698C28.713 56.1151 34.8314 60.2 41.9394 60.2Z" fill="white"/>
</svg>
