<svg width="84" height="84" viewBox="0 0 84 84" fill="none" xmlns="http://www.w3.org/2000/svg">
<path fill-rule="evenodd" clip-rule="evenodd" d="M0 42C0 18.804 18.804 0 42 0C65.196 0 84 18.804 84 42C84 65.196 65.196 84 42 84C18.804 84 0 65.196 0 42ZM42.0021 19.6C35.9186 19.6 35.1551 19.6266 32.7657 19.7353C30.381 19.8445 28.7533 20.2221 27.329 20.776C25.8557 21.3481 24.606 22.1135 23.3609 23.359C22.1149 24.6041 21.3496 25.8539 20.7755 27.3267C20.2202 28.7514 19.8422 30.3796 19.7349 32.7634C19.628 35.1528 19.6 35.9167 19.6 42.0002C19.6 48.0838 19.6271 48.8449 19.7353 51.2343C19.845 53.619 20.2225 55.2467 20.776 56.671C21.3486 58.1443 22.114 59.394 23.3595 60.6391C24.6041 61.8851 25.8539 62.6523 27.3262 63.2244C28.7514 63.7784 30.3796 64.1559 32.7639 64.2651C35.1532 64.3739 35.9162 64.4005 41.9993 64.4005C48.0833 64.4005 48.8444 64.3739 51.2338 64.2651C53.6185 64.1559 55.2481 63.7784 56.6733 63.2244C58.1461 62.6523 59.394 61.8851 60.6386 60.6391C61.8846 59.394 62.65 58.1443 63.224 56.6715C63.7747 55.2467 64.1527 53.6185 64.2647 51.2347C64.372 48.8454 64.4 48.0838 64.4 42.0002C64.4 35.9167 64.372 35.1532 64.2647 32.7639C64.1527 30.3792 63.7747 28.7514 63.224 27.3271C62.65 25.8539 61.8846 24.6041 60.6386 23.359C59.3926 22.113 58.1466 21.3477 56.6719 20.776C55.2439 20.2221 53.6152 19.8445 51.2305 19.7353C48.8412 19.6266 48.0805 19.6 41.9951 19.6H42.0021Z" fill="white"/>
<path fill-rule="evenodd" clip-rule="evenodd" d="M39.9926 23.6367C40.589 23.6358 41.2545 23.6367 42.0021 23.6367C47.983 23.6367 48.6918 23.6582 51.0537 23.7655C53.2377 23.8654 54.423 24.2303 55.2126 24.5369C56.258 24.9429 57.0033 25.4283 57.7868 26.2123C58.5708 26.9963 59.0561 27.743 59.4631 28.7883C59.7697 29.577 60.1351 30.7623 60.2345 32.9463C60.3418 35.3077 60.3652 36.017 60.3652 41.9951C60.3652 47.9732 60.3418 48.6825 60.2345 51.0439C60.1346 53.2279 59.7697 54.4132 59.4631 55.2019C59.0571 56.2472 58.5708 56.9916 57.7868 57.7751C57.0028 58.5591 56.2584 59.0445 55.2126 59.4505C54.424 59.7585 53.2377 60.1225 51.0537 60.2224C48.6923 60.3297 47.983 60.353 42.0021 60.353C36.0208 60.353 35.3119 60.3297 32.9505 60.2224C30.7665 60.1216 29.5812 59.7566 28.7911 59.45C27.7458 59.044 26.9991 58.5587 26.2151 57.7747C25.4311 56.9906 24.9457 56.2458 24.5388 55.2C24.2322 54.4114 23.8668 53.226 23.7674 51.042C23.66 48.6806 23.6386 47.9713 23.6386 41.9895C23.6386 36.0077 23.66 35.3021 23.7674 32.9407C23.8672 30.7567 24.2322 29.5714 24.5388 28.7818C24.9448 27.7364 25.4311 26.9897 26.2151 26.2057C26.9991 25.4217 27.7458 24.9364 28.7911 24.5295C29.5807 24.2214 30.7665 23.8574 32.9505 23.7571C35.017 23.6638 35.8178 23.6358 39.9926 23.6311V23.6367ZM53.9592 27.3561C52.4751 27.3561 51.2711 28.5587 51.2711 30.0432C51.2711 31.5272 52.4751 32.7312 53.9592 32.7312C55.4432 32.7312 56.6472 31.5272 56.6472 30.0432C56.6472 28.5592 55.4432 27.3561 53.9592 27.3561ZM42.0021 30.4968C35.6493 30.4968 30.4986 35.6474 30.4986 42.0002C30.4986 48.353 35.6493 53.5014 42.0021 53.5014C48.3549 53.5014 53.5037 48.353 53.5037 42.0002C53.5037 35.6474 48.3549 30.4968 42.0021 30.4968Z" fill="white"/>
<path fill-rule="evenodd" clip-rule="evenodd" d="M42.0021 34.5335C46.1256 34.5335 49.4688 37.8763 49.4688 42.0002C49.4688 46.1237 46.1256 49.467 42.0021 49.467C37.8781 49.467 34.5354 46.1237 34.5354 42.0002C34.5354 37.8763 37.8781 34.5335 42.0021 34.5335Z" fill="white"/>
</svg>
