<svg width="84" height="84" viewBox="0 0 84 84" fill="none" xmlns="http://www.w3.org/2000/svg">
<path fill-rule="evenodd" clip-rule="evenodd" d="M0 42C0 18.804 18.804 0 42 0C65.196 0 84 18.804 84 42C84 65.196 65.196 84 42 84C18.804 84 0 65.196 0 42ZM40.7421 34.1381L40.8302 35.5914L39.3613 35.4135C34.0145 34.7313 29.3434 32.4179 25.3773 28.5326L23.4384 26.6047L22.939 28.0284C21.8813 31.2019 22.557 34.5534 24.7604 36.8074C25.9355 38.0531 25.6711 38.2311 23.644 37.4896C22.939 37.2523 22.322 37.0744 22.2633 37.1634C22.0576 37.371 22.7627 40.0699 23.3209 41.1377C24.0847 42.6206 25.6417 44.0739 27.3457 44.934L28.7852 45.6162L27.0813 45.6458C25.4361 45.6458 25.3773 45.6755 25.5536 46.2983C26.1412 48.2262 28.462 50.2727 31.0473 51.1624L32.8688 51.7853L31.2823 52.7344C28.9321 54.0987 26.1706 54.8698 23.409 54.9291C22.087 54.9588 21 55.0774 21 55.1664C21 55.463 24.5841 57.1239 26.67 57.7764C32.9275 59.7042 40.3602 58.8738 45.942 55.5816C49.9081 53.2386 53.8741 48.5821 55.725 44.0739C56.7238 41.6715 57.7227 37.282 57.7227 35.1762C57.7227 33.8119 57.8108 33.6339 59.456 32.0027C60.4255 31.0536 61.3362 30.0155 61.5124 29.7189C61.8062 29.1554 61.7768 29.1554 60.2786 29.6596C57.7814 30.5494 57.4289 30.4307 58.6628 29.0961C59.5735 28.147 60.6605 26.4268 60.6605 25.9226C60.6605 25.8336 60.2198 25.9819 59.7204 26.2488C59.1916 26.5454 58.0164 26.9903 57.1351 27.2572L55.5487 27.7614L54.1092 26.7827C53.3159 26.2488 52.1996 25.6556 51.612 25.4777C50.1137 25.0624 47.8222 25.1218 46.4708 25.5963C42.7986 26.931 40.4777 30.3714 40.7421 34.1381Z" fill="white"/>
</svg>
